<svg width="22" height="22" viewBox="0 0 22 22" fill="none" xmlns="http://www.w3.org/2000/svg">
<path fill-rule="evenodd" clip-rule="evenodd" d="M12.3832 2.75C12.5642 2.75217 12.7369 2.82556 12.8641 2.95426C12.9912 3.08295 13.0625 3.25658 13.0625 3.4375V18.5625C13.0625 18.7433 12.9913 18.9168 12.8643 19.0455C12.7373 19.1742 12.5647 19.2476 12.3839 19.25H4.8125C4.63016 19.25 4.4553 19.1776 4.32636 19.0486C4.19743 18.9197 4.125 18.7448 4.125 18.5625V7.15069C4.12492 6.72723 4.25519 6.31401 4.49812 5.96715C4.74104 5.6203 5.08484 5.35662 5.48281 5.21194L12.1399 2.79125C12.2128 2.76512 12.2877 2.75138 12.3626 2.75H12.3729H12.3832ZM14.4375 8.38612L16.6251 9.32319C16.9961 9.48231 17.3123 9.74677 17.5344 10.0838C17.7566 10.4208 17.875 10.8156 17.875 11.2193V18.5625C17.875 18.7448 17.8026 18.9197 17.6736 19.0486C17.5447 19.1776 17.3698 19.25 17.1875 19.25H14.3199C14.3963 19.0348 14.4375 18.8038 14.4375 18.5625V8.38612ZM9.63394 14.4375C9.72422 14.4369 9.81351 14.4185 9.89669 14.3835C9.97988 14.3484 10.0553 14.2972 10.1188 14.233C10.1822 14.1687 10.2323 14.0926 10.2663 14.009C10.3004 13.9253 10.3176 13.8358 10.317 13.7455C10.3164 13.6552 10.298 13.566 10.2629 13.4828C10.2278 13.3996 10.1767 13.3241 10.1124 13.2607C10.0482 13.1973 9.97207 13.1471 9.88843 13.1131C9.8048 13.0791 9.71528 13.0619 9.625 13.0625H7.5625C7.38016 13.0625 7.2053 13.1349 7.07636 13.2639C6.94743 13.3928 6.875 13.5677 6.875 13.75C6.875 13.9323 6.94743 14.1072 7.07636 14.2361C7.2053 14.3651 7.38016 14.4375 7.5625 14.4375H9.625H9.63394ZM9.63394 11.6875C9.81627 11.6863 9.99067 11.6127 10.1188 11.483C10.2469 11.3532 10.3182 11.1779 10.317 10.9955C10.3158 10.8132 10.2422 10.6388 10.1124 10.5107C9.98268 10.3826 9.80734 10.3113 9.625 10.3125H7.5625C7.38016 10.3125 7.2053 10.3849 7.07636 10.5139C6.94743 10.6428 6.875 10.8177 6.875 11C6.875 11.1823 6.94743 11.3572 7.07636 11.4861C7.2053 11.6151 7.38016 11.6875 7.5625 11.6875H9.625H9.63394ZM9.63394 8.9375C9.81627 8.93631 9.99067 8.86275 10.1188 8.73298C10.2469 8.60321 10.3182 8.42787 10.317 8.24553C10.3158 8.06319 10.2422 7.8888 10.1124 7.7607C9.98268 7.63261 9.80734 7.56131 9.625 7.5625H7.5625C7.38016 7.5625 7.2053 7.63493 7.07636 7.76386C6.94743 7.8928 6.875 8.06766 6.875 8.25C6.875 8.43234 6.94743 8.6072 7.07636 8.73614C7.2053 8.86507 7.38016 8.9375 7.5625 8.9375H9.625H9.63394Z" fill="black"/>
</svg>
