<svg width="22" height="22" viewBox="0 0 22 22" fill="none" xmlns="http://www.w3.org/2000/svg">
<g clip-path="url(#clip0_142_14)">
<path d="M13.4233 8.57511C13.1627 8.31296 12.8738 8.08057 12.5618 7.88223C11.7356 7.35318 10.7751 7.07201 9.79399 7.07203C9.11979 7.07077 8.45201 7.20294 7.82912 7.46091C7.20623 7.71887 6.64054 8.09755 6.16464 8.57511L1.50148 13.2419C0.541897 14.2033 0.00257856 15.506 0.00171005 16.8643C-9.43163e-05 19.6989 2.29626 21.9982 5.13083 22C5.80398 22.0023 6.47094 21.8714 7.09323 21.6146C7.71551 21.3579 8.28081 20.9805 8.75652 20.5043L12.6058 16.655C12.6575 16.6037 12.6928 16.5382 12.7071 16.4668C12.7214 16.3954 12.7141 16.3213 12.6862 16.2541C12.6583 16.1869 12.611 16.1294 12.5503 16.0892C12.4896 16.0489 12.4183 16.0277 12.3455 16.0281H12.1989C11.3947 16.0309 10.5977 15.8765 9.85267 15.5735C9.78557 15.5459 9.71178 15.5388 9.64064 15.5532C9.56951 15.5675 9.50424 15.6027 9.45309 15.6541L6.68524 18.4256C5.82577 19.2851 4.43228 19.2851 3.5728 18.4256C2.71332 17.5662 2.71332 16.1727 3.5728 15.3132L8.25431 10.6354C9.1131 9.77767 10.5043 9.77767 11.3631 10.6354C11.9419 11.1801 12.8447 11.1801 13.4234 10.6354C13.6724 10.3862 13.8234 10.0556 13.8487 9.70421C13.8619 9.49661 13.8308 9.28856 13.7575 9.09389C13.6842 8.89922 13.5703 8.72238 13.4233 8.57511Z" fill="black"/>
<path d="M20.4951 1.50357C18.4906 -0.500864 15.2408 -0.500864 13.2364 1.50357L9.39073 5.34553C9.33912 5.39739 9.30421 5.46351 9.29049 5.53538C9.27677 5.60725 9.28487 5.68158 9.31374 5.74881C9.34228 5.81623 9.39035 5.87356 9.45177 5.91342C9.51319 5.95327 9.58513 5.97382 9.65833 5.97242H9.79396C10.5972 5.97094 11.393 6.12662 12.1365 6.43068C12.2036 6.4583 12.2774 6.46538 12.3486 6.45103C12.4197 6.43667 12.485 6.40153 12.5361 6.35005L15.2966 3.59319C16.1561 2.73371 17.5496 2.73371 18.4091 3.59319C19.2685 4.45267 19.2685 5.84616 18.4091 6.70563L14.9703 10.1407L14.941 10.1737L13.7386 11.3688C12.8798 12.2265 11.4886 12.2265 10.6298 11.3688C10.051 10.8241 9.14821 10.8241 8.56949 11.3688C8.31889 11.6199 8.16781 11.9533 8.14421 12.3073C8.13096 12.5149 8.16203 12.7229 8.23535 12.9176C8.30867 13.1123 8.42257 13.2891 8.56949 13.4364C8.99379 13.8625 9.49027 14.2101 10.0359 14.4629C10.1129 14.4995 10.1898 14.5289 10.2668 14.5619C10.3438 14.5949 10.4245 14.6205 10.5014 14.6499C10.5785 14.6788 10.6568 14.7045 10.7361 14.7268L10.9524 14.7855C11.099 14.8221 11.2457 14.8515 11.3959 14.8771C11.577 14.904 11.7593 14.9212 11.9422 14.9285H12.2208L12.4407 14.9028C12.5214 14.8992 12.6057 14.8808 12.701 14.8808H12.8257L13.0786 14.8442L13.196 14.8222L13.4086 14.7782H13.4489C14.3494 14.552 15.1717 14.0857 15.8281 13.4291L20.495 8.76226C22.4995 6.75783 22.4995 3.508 20.4951 1.50357Z" fill="black"/>
</g>
<defs>
<clipPath id="clip0_142_14">
<rect width="22" height="22" fill="white"/>
</clipPath>
</defs>
</svg>
