<svg width="22" height="22" viewBox="0 0 22 22" fill="none" xmlns="http://www.w3.org/2000/svg">
<g clip-path="url(#clip0_341_2860)">
<path d="M21.1104 13.558C21.0184 13.4662 20.9023 13.4024 20.7755 13.3739C20.6487 13.3454 20.5164 13.3535 20.394 13.3971C18.7491 13.9836 16.9715 14.0913 15.2678 13.7077C13.564 13.324 12.0041 12.4649 10.7693 11.23C9.53446 9.99504 8.67538 8.4351 8.29186 6.73135C7.90834 5.02761 8.01613 3.25002 8.60271 1.6051C8.6463 1.48267 8.65429 1.3504 8.62577 1.22361C8.59725 1.09683 8.53337 0.980721 8.44155 0.888757C8.34973 0.796793 8.23373 0.732736 8.10699 0.704014C7.98024 0.675292 7.84796 0.683079 7.72546 0.726474C6.24245 1.25017 4.89663 2.10156 3.78815 3.21729C1.80101 5.20593 0.685016 7.90235 0.685547 10.7136C0.686079 13.5249 1.8031 16.2209 3.79098 18.2088C5.77887 20.1967 8.47487 21.3137 11.2862 21.3143C14.0975 21.3148 16.7939 20.1988 18.7825 18.2117C19.8983 17.103 20.7497 15.7569 21.2733 14.2737C21.3166 14.1512 21.3242 14.0189 21.2954 13.8923C21.2665 13.7656 21.2024 13.6497 21.1104 13.558Z" fill="#141B2F"/>
</g>
<defs>
<clipPath id="clip0_341_2860">
<rect width="22" height="22" fill="white"/>
</clipPath>
</defs>
</svg>
