<svg width="22" height="22" viewBox="0 0 22 22" fill="none" xmlns="http://www.w3.org/2000/svg">
<path d="M17.9472 15.9698C17.6543 15.6769 17.1795 15.6769 16.8866 15.9698C16.5937 16.2627 16.5937 16.7376 16.8866 17.0305L17.9472 15.9698ZM20.5531 20.6971C20.846 20.99 21.3209 20.99 21.6138 20.6971C21.9067 20.4042 21.9067 19.9294 21.6138 19.6365L20.5531 20.6971ZM8.56713 4.46394C8.97625 4.39914 9.25537 4.01496 9.19057 3.60585C9.12578 3.19673 8.74159 2.91761 8.33248 2.98241L8.56713 4.46394ZM3.89913 7.41576C3.83433 7.82487 4.11345 8.20905 4.52257 8.27385C4.93168 8.33865 5.31586 8.05953 5.38066 7.65041L3.89913 7.41576ZM16.8866 17.0305L20.5531 20.6971L21.6138 19.6365L17.9472 15.9698L16.8866 17.0305ZM10.0835 16.6667C5.94136 16.6667 2.5835 13.3089 2.5835 9.16675H1.0835C1.0835 14.1373 5.11293 18.1667 10.0835 18.1667V16.6667ZM17.5835 9.16675C17.5835 13.3089 14.2256 16.6667 10.0835 16.6667V18.1667C15.0541 18.1667 19.0835 14.1373 19.0835 9.16675H17.5835ZM10.0835 1.66675C14.2256 1.66675 17.5835 5.02461 17.5835 9.16675H19.0835C19.0835 4.19619 15.0541 0.166748 10.0835 0.166748V1.66675ZM10.0835 0.166748C5.11293 0.166748 1.0835 4.19619 1.0835 9.16675H2.5835C2.5835 5.02461 5.94136 1.66675 10.0835 1.66675V0.166748ZM8.33248 2.98241C6.05039 3.34385 4.26057 5.13367 3.89913 7.41576L5.38066 7.65041C5.64045 6.01016 6.92688 4.72373 8.56713 4.46394L8.33248 2.98241Z" fill="#0179F9"/>
</svg>
