<svg width="22" height="22" viewBox="0 0 22 22" fill="none" xmlns="http://www.w3.org/2000/svg">
<g clip-path="url(#clip0_341_2856)">
<path d="M11 3.36016C11.356 3.36016 11.6445 3.07158 11.6445 2.71563V0.644531C11.6445 0.288578 11.356 0 11 0C10.644 0 10.3555 0.288578 10.3555 0.644531V2.71563C10.3555 3.07158 10.644 3.36016 11 3.36016ZM4.68639 5.59788C4.9381 5.84959 5.34617 5.84959 5.59788 5.59788C5.84959 5.34617 5.84959 4.9381 5.59788 4.68639L4.13342 3.22188C3.88171 2.97017 3.47364 2.97017 3.22193 3.22188C2.97021 3.47359 2.97021 3.88167 3.22193 4.13338L4.68639 5.59788ZM4.68613 16.4024L3.22167 17.8668C2.96996 18.1185 2.96996 18.5266 3.22167 18.7783C3.47338 19.03 3.88145 19.03 4.13316 18.7783L5.59767 17.3138C5.84938 17.0621 5.84938 16.654 5.59767 16.4023C5.34596 16.1506 4.93784 16.1507 4.68613 16.4024ZM11 18.6398C10.644 18.6398 10.3555 18.9284 10.3555 19.2844V21.3555C10.3555 21.7114 10.644 22 11 22C11.356 22 11.6445 21.7114 11.6445 21.3555V19.2844C11.6445 18.9284 11.356 18.6398 11 18.6398ZM3.36016 11C3.36016 10.644 3.07158 10.3555 2.71563 10.3555H0.644531C0.288578 10.3555 0 10.644 0 11C0 11.356 0.288578 11.6445 0.644531 11.6445H2.71563C3.07158 11.6445 3.36016 11.356 3.36016 11ZM11 5.5229C7.97994 5.5229 5.5229 7.97994 5.5229 11C5.5229 14.0201 7.97994 16.4771 11 16.4771C14.0201 16.4771 16.4771 14.0201 16.4771 11C16.4771 7.97994 14.0201 5.5229 11 5.5229ZM17.3139 5.59763L18.7784 4.13312C19.0301 3.88141 19.0301 3.47334 18.7784 3.22162C18.5267 2.96991 18.1186 2.96991 17.8669 3.22162L16.4024 4.68613C16.1507 4.93784 16.1507 5.34591 16.4024 5.59763C16.6541 5.84934 17.0622 5.84934 17.3139 5.59763ZM17.3136 16.4021C17.0619 16.1504 16.6538 16.1504 16.4021 16.4021C16.1504 16.6538 16.1504 17.0619 16.4021 17.3136L17.8666 18.7781C18.1183 19.0298 18.5264 19.0298 18.7781 18.7781C19.0298 18.5264 19.0298 18.1183 18.7781 17.8666L17.3136 16.4021ZM21.3555 10.3555H19.2844C18.9284 10.3555 18.6398 10.644 18.6398 11C18.6398 11.356 18.9284 11.6445 19.2844 11.6445H21.3555C21.7114 11.6445 22 11.356 22 11C22 10.644 21.7114 10.3555 21.3555 10.3555Z" fill="#8b95a7"/>
</g>
<defs>
<clipPath id="clip0_341_2856">
<rect width="22" height="22" fill="white"/>
</clipPath>
</defs>
</svg>
